<?xml version="1.0" encoding="UTF-8"?>
<svg version="1.1" xmlns="http://www.w3.org/2000/svg" width="329" height="244">
<path d="M0 0 C108.57 0 217.14 0 329 0 C329 80.52 329 161.04 329 244 C220.43 244 111.86 244 0 244 C0 163.48 0 82.96 0 0 Z " fill="#F79523" transform="translate(0,0)"/>
<path d="M0 0 C74.58 0 149.16 0 226 0 C219.29251701 7.82539683 219.29251701 7.82539683 216.375 10.25 C212.84202491 13.25505927 209.40821456 16.3549783 206 19.5 C201.39218193 23.73750875 196.75934061 27.93292711 192 32 C191.5143457 32.41733398 191.02869141 32.83466797 190.52832031 33.26464844 C188.89881517 34.66150796 187.26279955 36.05037909 185.625 37.4375 C185.10035156 37.88746338 184.57570312 38.33742676 184.03515625 38.80102539 C180.22942602 42 180.22942602 42 178 42 C178 42.66 178 43.32 178 44 C176.5390625 45.5078125 176.5390625 45.5078125 174.625 47.125 C173.99851563 47.66382813 173.37203125 48.20265625 172.7265625 48.7578125 C171 50 171 50 169 50 C168.67 50.99 168.34 51.98 168 53 C166.21484375 54.578125 166.21484375 54.578125 163.9375 56.25 C159.97293481 59.22025731 156.27487755 62.36349639 152.62890625 65.71484375 C151 67 151 67 149 67 C149 67.66 149 68.32 149 69 C146.76953125 70.98046875 146.76953125 70.98046875 143.8125 73.1875 C142.84957031 73.92355469 141.88664063 74.65960938 140.89453125 75.41796875 C138 77 138 77 135.50390625 77.0859375 C132.00918296 75.57028528 129.69668791 73.16152933 127.125 70.4375 C126.59471191 69.89029297 126.06442383 69.34308594 125.51806641 68.77929688 C120.64007633 63.71179785 115.9415901 58.54426488 111.671875 52.94921875 C105.80695437 45.20360058 105.80695437 45.20360058 97.15234375 41.25390625 C88.8789688 40.27791828 81.62595818 40.85926346 74.75 45.8125 C69.49298423 50.04903624 65.42321378 54.50441698 64.59375 61.35546875 C64.38190609 70.01458848 65.15858156 75.33448103 71 82 C71.64195313 82.81210938 72.28390625 83.62421875 72.9453125 84.4609375 C77.74443314 90.4996834 82.84097084 96.2810181 87.91137695 102.09130859 C91.94955867 106.73835271 95.87657801 111.46498376 99.75 116.25 C100.29261475 116.919104 100.83522949 117.58820801 101.39428711 118.27758789 C103.79743608 121.24846753 106.18547746 124.22881597 108.53515625 127.2421875 C114.0518896 134.22563384 119.86498219 141.20882004 129 143 C137.53816628 143.86599468 145.07848768 142.64216819 152.12255859 137.42919922 C154.17777605 135.60058917 156.12692561 133.70469409 158.0625 131.75 C159.53210334 130.31594624 161.00216939 128.88236653 162.47265625 127.44921875 C163.21660645 126.71493652 163.96055664 125.9806543 164.72705078 125.22412109 C168.42454438 121.60605808 172.21749703 118.09118595 176 114.5625 C181.12801566 109.75180632 186.16712605 104.8772475 191.1015625 99.8671875 C193.59827209 97.41157601 196.24416802 95.15658764 198.90234375 92.87890625 C201.364259 90.67372704 203.6772364 88.35113323 206 86 C208.85523683 83.11010172 211.71500196 80.31548255 214.8125 77.6875 C219.35331765 73.8273388 223.47284304 69.55125775 227.60864258 65.26635742 C229.03630103 63.8079737 230.51440504 62.39932103 232 61 C232.66 61 233.32 61 234 61 C234.33 60.01 234.66 59.02 235 58 C236.49609375 56.52734375 236.49609375 56.52734375 238.4375 54.9375 C241.79158015 52.09943218 244.91689575 49.13075656 248 46 C251.53325261 42.42359316 255.15397662 39.06558729 258.9765625 35.8046875 C262.20436116 32.92584005 265.19926208 29.82099831 268.21484375 26.72265625 C270 25 270 25 271 25 C271.09358941 41.53365284 271.16405052 58.06721927 271.20724869 74.60107327 C271.22784268 82.27865409 271.25590237 89.95606998 271.30175781 97.63354492 C271.34172292 104.32802621 271.3674558 111.02238801 271.37635398 117.71698529 C271.38155248 121.25925787 271.39370378 124.8011887 271.42292023 128.34335136 C271.45532975 132.30505481 271.45595321 136.26642897 271.45410156 140.22827148 C271.46848267 141.39280853 271.48286377 142.55734558 271.49768066 143.75717163 C271.44695898 153.80605656 268.81156138 160.66447236 262 168 C261.54155522 168.54129659 261.08311043 169.08259318 260.61077338 169.6402927 C258.55030475 171.37960269 257.46299756 171.37662911 254.79012585 171.38031673 C253.92745419 171.38875668 253.06478253 171.39719662 252.1759693 171.40589231 C251.22773632 171.39988227 250.27950333 171.39387222 249.30253601 171.38768005 C248.2955687 171.39306559 247.28860139 171.39845113 246.25111991 171.40399987 C242.86089418 171.41836152 239.4710544 171.41115539 236.08081055 171.40405273 C233.65663334 171.40975207 231.23245883 171.41671463 228.80828857 171.42485046 C222.89707043 171.4409758 216.98595036 171.44287217 211.0747219 171.43763756 C206.26981819 171.43359927 201.46494591 171.43503535 196.66004372 171.44038582 C195.9766683 171.44113424 195.29329288 171.44188266 194.58920911 171.44265376 C193.20098909 171.44418522 191.81276908 171.44572357 190.42454908 171.44726873 C177.39800116 171.46100509 164.37151325 171.45554866 151.34496669 171.44408352 C139.42810951 171.43415514 127.51140768 171.44708288 115.59457447 171.47101771 C103.3609201 171.49540381 91.12733809 171.50501748 78.89365989 171.49836498 C72.02441983 171.49487099 65.1552992 171.49711634 58.2860775 171.51461601 C51.82561617 171.53086989 45.36537846 171.52616378 38.90492249 171.50731087 C36.53214386 171.50361612 34.1593434 171.50675908 31.78658485 171.51719666 C28.55018332 171.53034741 25.3147734 171.51891052 22.07841492 171.50120544 C20.66610369 171.51561295 20.66610369 171.51561295 19.22526091 171.53031152 C13.64313144 171.46737648 10.41997937 170.74080262 6 167 C1.39654158 161.8850462 -0.25146065 158.42020999 -0.24050903 151.52069092 C-0.24222107 150.8736319 -0.24393311 150.22657288 -0.24569702 149.55990601 C-0.24900468 147.38715565 -0.23796509 145.21471432 -0.22705078 143.04199219 C-0.22643808 141.45956049 -0.22670515 139.87712825 -0.2277813 138.29469681 C-0.22823294 134.05584391 -0.21663867 129.81710385 -0.20256042 125.57827759 C-0.19117316 121.60117231 -0.19063433 117.62409453 -0.18920898 113.64697266 C-0.17871304 102.01463348 -0.15079076 90.38231532 -0.125 78.75 C-0.08375 52.7625 -0.0425 26.775 0 0 Z " fill="#FAFCFC" transform="translate(15,61)"/>
<path d="M0 0 C3.0625 2.375 3.0625 2.375 5 6 C5 9.63 5 13.26 5 17 C16.22 17 27.44 17 39 17 C39 13.7 39 10.4 39 7 C39.81698274 3.16018114 40.45170929 2.36137342 43.75 0.1875 C47.2495007 -1.09116372 49.31749182 -1.53703244 53 -1 C58.57894737 2.15789474 58.57894737 2.15789474 60 5 C60 8.96 60 12.92 60 17 C71.22 17 82.44 17 94 17 C94 13.7 94 10.4 94 7 C96.05547334 2.88905332 97.74187236 0.67366991 102 -1 C106.56603225 -1.31856039 110.13220672 -0.51359194 114.0625 1.8125 C116 5 116 5 116 17 C127.22 17 138.44 17 150 17 C150 13.37 150 9.74 150 6 C151.92606876 2.39638747 153.20031353 0.56952103 157.16015625 -0.68359375 C160.90581517 -1.29015287 163.33978821 -1.27269617 166.875 0.1875 C169.97123187 2.82840365 171.85709399 4.63572398 172.29296875 8.796875 C172.25816406 9.77140625 172.22335938 10.7459375 172.1875 11.75 C172.14689453 13.22726563 172.14689453 13.22726563 172.10546875 14.734375 C172.07066406 15.48203125 172.03585938 16.2296875 172 17 C173.145896 16.99476318 174.29179199 16.98952637 175.47241211 16.98413086 C179.70840682 16.96608283 183.94439812 16.95456872 188.18041992 16.94506836 C190.01668875 16.94002769 191.85295354 16.93319523 193.68920898 16.92456055 C196.32276401 16.91248328 198.95626616 16.90676919 201.58984375 16.90234375 C202.41588608 16.89718246 203.24192841 16.89202118 204.09300232 16.88670349 C206.06236368 16.88650795 208.03161614 16.93795848 210 17 C211.68170334 18.68170334 211.4763048 20.59654217 211.66796875 22.91015625 C211.61652863 28.1258474 210.32341496 30.502258 206.80078125 34.30859375 C204.99883756 36.04717238 203.16821761 37.75643817 201.3125 39.4375 C200.40048828 40.30826172 199.48847656 41.17902344 198.54882812 42.07617188 C195.26999171 45.18331649 191.98771437 48.21736312 188.44604492 51.02368164 C185.97592302 52.8570523 185.97592302 52.8570523 184.41579819 55.09345627 C180.76286218 57.97634702 177.43021548 57.54156163 172.90118408 57.48101807 C171.9708 57.48443577 171.04041591 57.48785347 170.08183837 57.49137473 C166.95691709 57.49797573 163.83285027 57.47594054 160.70800781 57.45410156 C158.47099325 57.45297357 156.2339772 57.45360601 153.9969635 57.45587158 C147.91668664 57.45702152 141.83672397 57.43346667 135.75652027 57.40557575 C129.40505875 57.38060882 123.05359042 57.37822381 116.7020874 57.37347412 C106.0391226 57.36244523 95.3762822 57.33744269 84.71337891 57.30175781 C73.73063739 57.26504077 62.74792722 57.23672753 51.76513672 57.21972656 C50.74964107 57.21815022 50.74964107 57.21815022 49.71363035 57.21654204 C46.31732891 57.21132188 42.92102725 57.20626705 39.52472544 57.20129442 C11.34973659 57.15982868 -16.82512453 57.08907967 -45 57 C-44.98618522 77.46260303 -44.94391576 97.92495945 -44.86790943 118.38742828 C-44.83327822 127.88884541 -44.80790636 137.39011774 -44.80444336 146.89160156 C-44.80140087 155.17454863 -44.78087206 163.45723769 -44.73947543 171.74008512 C-44.71816956 176.12456279 -44.70553234 180.50867388 -44.71384621 184.89320374 C-44.72140174 189.0236652 -44.7055033 193.15338485 -44.67193985 197.28371048 C-44.66372456 198.79613179 -44.66393546 200.30862712 -44.67340279 201.82104111 C-44.79377195 212.14569986 -44.79377195 212.14569986 -40.65650463 221.40120697 C-34.92309494 226.9348682 -30.53954877 227.58180097 -22.90139771 227.51898193 C-21.38075173 227.53023381 -21.38075173 227.53023381 -19.82938564 227.541713 C-16.43438876 227.56200348 -13.04005887 227.5538845 -9.64501953 227.54589844 C-7.2106612 227.55463266 -4.77630861 227.56511792 -2.34196472 227.57722473 C2.8979769 227.59934424 8.13779119 227.60928597 13.37777328 227.60811615 C20.9538403 227.60644591 28.52972308 227.62679172 36.10574092 227.65247145 C48.39795893 227.69354115 60.69014376 227.71686248 72.98242188 227.72900391 C84.92158191 227.7408346 96.8606795 227.76103556 108.79980469 227.79248047 C109.90412204 227.79538462 109.90412204 227.79538462 111.03074883 227.79834744 C114.724191 227.80811211 118.4176327 227.81804121 122.11107421 227.82805204 C152.74068812 227.91085901 183.37029251 227.96455826 214 228 C214.33 227.01 214.66 226.02 215 225 C215.763125 224.2575 216.52625 223.515 217.3125 222.75 C221.33064963 218.63840503 224.85583528 213.59273395 225.09397221 207.65811539 C225.07247939 206.26455133 225.07247939 206.26455133 225.05055237 204.84283447 C225.03055176 203.24102577 225.03055176 203.24102577 225.01014709 201.6068573 C224.99076584 200.43496353 224.97138458 199.26306976 224.95141602 198.05566406 C224.91865536 195.49604211 224.88667443 192.9364101 224.85536194 190.37677002 C224.84653366 189.70215776 224.83770539 189.0275455 224.82860959 188.33249044 C224.7174061 179.6723163 224.68704968 171.01167295 224.65329087 162.35090876 C224.62000749 153.92671957 224.56156549 145.50468579 224.4206543 137.08154297 C224.30878252 130.38545103 224.25456169 123.69162177 224.26622146 116.99456763 C224.27032215 113.45573152 224.24696395 109.92224866 224.15368843 106.38452911 C223.57243791 83.26471223 223.57243791 83.26471223 229.4357605 76.06164551 C232.66424132 72.7676552 236.16176737 70.04371912 239.96699333 67.45038605 C243.23485939 65.11902757 246.05646122 62.34630513 248.9375 59.5625 C253.87190684 55 253.87190684 55 255 55 C255.11689407 76.74897724 255.205018 98.49790255 255.25906086 120.24713039 C255.28482289 130.34609426 255.31993518 140.44486273 255.37719727 150.54370117 C255.42709348 159.34769116 255.45930556 168.15153962 255.47044247 176.95566708 C255.4769507 181.61579448 255.49220507 186.27551703 255.52865028 190.93551445 C255.56270812 195.3260225 255.57303332 199.71596076 255.56553841 204.10658836 C255.5669086 205.7137843 255.57678292 207.32100022 255.59602737 208.92808151 C255.70761533 218.73144649 255.31488104 226.54065189 248.18581104 233.86350155 C243.69277637 238.05853256 239.33381259 240.24670982 233.09671307 240.25726891 C231.64705482 240.26694224 231.64705482 240.26694224 230.16811055 240.276811 C228.5872897 240.2721652 228.5872897 240.2721652 226.97453308 240.26742554 C225.84884503 240.27195665 224.72315698 240.27648776 223.56335717 240.28115618 C219.7833262 240.29383796 216.0034386 240.29217735 212.22338867 240.29052734 C209.51644852 240.29542265 206.80951849 240.30325844 204.10258484 240.31088257 C197.5078583 240.32749048 190.91316751 240.33299202 184.3184218 240.33410732 C178.95723872 240.33505792 173.59606743 240.3391688 168.23488808 240.34550858 C153.0317903 240.36312061 137.82872075 240.37234753 122.6256127 240.37084763 C121.80613072 240.37076772 120.98664875 240.3706878 120.14233398 240.37060547 C118.91160846 240.37048283 118.91160846 240.37048283 117.65601978 240.37035771 C104.36004857 240.36954487 91.06419066 240.388682 77.76825222 240.4168822 C64.11297736 240.44561578 50.45775776 240.45942223 36.80245191 240.45769465 C29.13728222 240.4570309 21.4722313 240.46251656 13.80708885 240.48405075 C7.28053406 240.50226884 0.75415188 240.50660483 -5.77241734 240.4930319 C-9.10115236 240.48650509 -12.42928627 240.48855044 -15.75803375 240.5037384 C-19.37017944 240.51915206 -22.98145547 240.509907 -26.59358215 240.49447632 C-27.64077055 240.50476344 -28.68795895 240.51505057 -29.76688033 240.52564943 C-39.03300436 240.43817191 -45.33517703 237.51334972 -52 231 C-54.80543429 227.21004995 -56.58524177 223.82824459 -56 219 C-56.66 219 -57.32 219 -58 219 C-58.09354572 195.46016486 -58.1640294 171.92035769 -58.20724869 148.38037395 C-58.22785179 137.44972701 -58.25592936 126.51919574 -58.30175781 115.58862305 C-58.34169449 106.05873832 -58.36744917 96.52893738 -58.37635398 86.99897128 C-58.38155715 81.95543816 -58.39373954 76.91214471 -58.42292023 71.86868858 C-58.45019729 67.11545275 -58.45842026 62.36255388 -58.45243073 57.60924721 C-58.45352548 55.87067454 -58.46140584 54.13208987 -58.4768219 52.39358521 C-58.56672414 41.72619399 -57.94238706 32.57064511 -52.3125 23.1875 C-42.0705634 13.49918159 -32.62475303 12.655554 -19 13 C-19 13.99 -19 14.98 -19 16 C-18.34 16 -17.68 16 -17 16 C-17.05800781 15.34773438 -17.11601563 14.69546875 -17.17578125 14.0234375 C-17.59037238 5.99221498 -17.59037238 5.99221498 -14.6875 2.4375 C-10.10896142 -1.71512801 -5.74155611 -1.57867655 0 0 Z " fill="#2471A3" transform="translate(60,4)"/>
<path d="M0 0 C3.0625 2.375 3.0625 2.375 5 6 C5 9.63 5 13.26 5 17 C16.22 17 27.44 17 39 17 C39 13.7 39 10.4 39 7 C39.81698274 3.16018114 40.45170929 2.36137342 43.75 0.1875 C47.2495007 -1.09116372 49.31749182 -1.53703244 53 -1 C58.57894737 2.15789474 58.57894737 2.15789474 60 5 C60 8.96 60 12.92 60 17 C71.22 17 82.44 17 94 17 C94 13.7 94 10.4 94 7 C96.05547334 2.88905332 97.74187236 0.67366991 102 -1 C106.56603225 -1.31856039 110.13220672 -0.51359194 114.0625 1.8125 C116 5 116 5 116 17 C127.22 17 138.44 17 150 17 C150 13.37 150 9.74 150 6 C151.92606876 2.39638747 153.20031353 0.56952103 157.16015625 -0.68359375 C160.90581517 -1.29015287 163.33978821 -1.27269617 166.875 0.1875 C169.97123187 2.82840365 171.85709399 4.63572398 172.29296875 8.796875 C172.25816406 9.77140625 172.22335938 10.7459375 172.1875 11.75 C172.14689453 13.22726563 172.14689453 13.22726563 172.10546875 14.734375 C172.07066406 15.48203125 172.03585938 16.2296875 172 17 C173.145896 16.99476318 174.29179199 16.98952637 175.47241211 16.98413086 C179.70840682 16.96608283 183.94439812 16.95456872 188.18041992 16.94506836 C190.01668875 16.94002769 191.85295354 16.93319523 193.68920898 16.92456055 C196.32276401 16.91248328 198.95626616 16.90676919 201.58984375 16.90234375 C202.41588608 16.89718246 203.24192841 16.89202118 204.09300232 16.88670349 C206.06236368 16.88650795 208.03161614 16.93795848 210 17 C211.68128461 18.68128461 211.47869797 20.59301615 211.671875 22.90625 C211.62106307 28.14326578 210.30275842 30.52398849 206.765625 34.34375 C204.95457274 36.09144183 203.11484414 37.80982446 201.25 39.5 C200.32960938 40.37914062 199.40921875 41.25828125 198.4609375 42.1640625 C188.08357225 52 188.08357225 52 184 52 C184 52.66 184 53.32 184 54 C180.02241855 55.32586048 176.20702306 55.15355867 172.05940247 55.15821838 C170.6712333 55.16562535 170.6712333 55.16562535 169.25502032 55.17318195 C166.14112543 55.18859088 163.02725121 55.19692677 159.91333008 55.20532227 C157.68631304 55.21489812 155.45929783 55.22490803 153.23228455 55.23532104 C147.17481581 55.26240787 141.11733926 55.28339698 135.0598433 55.30332303 C128.73370318 55.3251593 122.40758728 55.35255951 116.08146667 55.37937927 C105.4596762 55.42365693 94.83787807 55.46448678 84.21606445 55.50268555 C73.27497386 55.54204193 62.33389434 55.5834685 51.39282227 55.62768555 C50.71854944 55.63040982 50.04427661 55.63313409 49.34957127 55.63594092 C45.96698293 55.64962042 42.58439476 55.66334069 39.20180666 55.67708123 C11.13456084 55.7910415 -16.93270915 55.89777856 -45 56 C-45.1174875 52.66696997 -45.18767324 49.33448163 -45.25 46 C-45.28351562 45.06542969 -45.31703125 44.13085938 -45.3515625 43.16796875 C-45.46079494 35.35784906 -43.8542539 30.06832295 -38.5 24.3125 C-32.69704373 19.93431049 -25.11656951 17.20132917 -18 16 C-17.97873047 15.02160156 -17.97873047 15.02160156 -17.95703125 14.0234375 C-17.60805637 7.62870866 -16.73304643 4.39497169 -12 0 C-7.7879065 -1.40403117 -4.27049246 -1.17419845 0 0 Z " fill="#2D86E3" transform="translate(60,4)"/>
<path d="M0 0 C108.57 0 217.14 0 329 0 C329 10.23 329 20.46 329 31 C327.70152744 29.05229116 326.44806155 27.07353188 325.25 25.0625 C322.01420133 20.65821847 318.37522238 18.03359821 313 17 C311.00308687 17 309.00614767 17.00108514 307.00927734 17.01416016 C297.28742729 16.95322788 297.28742729 16.95322788 293.3515625 14.0390625 C292.05593505 12.45665586 290.80931556 10.83253783 289.62109375 9.16796875 C287.11243811 5.81301965 285.01073011 5.09383548 281 4 C276.53712932 3.45192816 274.58111643 3.67715754 270.625 5.875 C267.96206806 7.73102809 267.96206806 7.73102809 267 10 C266.67 13.63 266.34 17.26 266 21 C254.78 21 243.56 21 232 21 C231.67 17.37 231.34 13.74 231 10 C229.73680006 6.75209236 229.73680006 6.75209236 227 5 C222.66084184 3.71852899 219.2544886 3.46617506 215.0625 5.25 C209.41627606 10.04073546 210.77925311 12.42821582 210 21 C198.78 21 187.56 21 176 21 C175.67 17.04 175.34 13.08 175 9 C170.70466986 4.70466986 169.7544184 4.28299436 164.1875 3.8984375 C161.04786515 4.04420626 159.34479516 4.93942243 157 7 C154.32509219 11.75649007 154.32509219 11.75649007 154 21 C142.78 21 131.56 21 120 21 C119.505 15.06 119.505 15.06 119 9 C115.5797509 5.15811388 115.5797509 5.15811388 113 4 C110.88379595 4.02308617 110.88379595 4.02308617 108.5625 4.3125 C107.78003906 4.39113281 106.99757813 4.46976562 106.19140625 4.55078125 C103.72152882 4.91386649 103.72152882 4.91386649 101 7 C100.34 11.62 99.68 16.24 99 21 C87.78 21 76.56 21 65 21 C64.505 15.555 64.505 15.555 64 10 C62.73680006 6.75209236 62.73680006 6.75209236 60 5 C55.66084184 3.71852899 52.2544886 3.46617506 48.0625 5.25 C45.4999218 7.42430877 44.14535698 9.12922942 43.5859375 12.48046875 C43.51632813 13.37378906 43.44671875 14.26710938 43.375 15.1875 C43.30023438 16.08855469 43.22546875 16.98960938 43.1484375 17.91796875 C43.09945312 18.60503906 43.05046875 19.29210937 43 20 C42.34 20 41.68 20 41 20 C41 19.01 41 18.02 41 17 C24.14160846 17.6274138 24.14160846 17.6274138 10 26 C4.57473374 32.85372733 2.69705475 40.05173315 2.7215271 48.75120544 C2.7157347 49.50039295 2.7099423 50.24958045 2.70397437 51.02147061 C2.68706054 53.51492789 2.68410535 56.00819911 2.68115234 58.50170898 C2.67184821 60.29582671 2.66167882 62.08994013 2.65071106 63.88404846 C2.62345173 68.74297399 2.60827369 73.60187058 2.59528303 78.46085238 C2.57963471 83.54311353 2.5528499 88.62531577 2.5272522 93.70753479 C2.48049456 103.3262562 2.44373584 112.94498873 2.41057932 122.56376559 C2.37233665 133.51659758 2.32293209 144.46937035 2.27259517 155.4221524 C2.16932014 177.94805769 2.08004532 200.47400103 2 223 C2.66 223 3.32 223 4 223 C4.25523437 223.88751953 4.25523437 223.88751953 4.515625 224.79296875 C6.70237008 231.92315349 8.95438728 235.99942085 15.625 239.6875 C16.40101562 240.08324219 17.17703125 240.47898438 17.9765625 240.88671875 C20 242 20 242 22 244 C14.74 244 7.48 244 0 244 C0 163.48 0 82.96 0 0 Z " fill="#FBFCFC" transform="translate(0,0)"/>
<path d="M0 0 C-0.50877059 4.14182257 -1.54150807 6.0254538 -4.5625 8.875 C-5.65111328 9.91140625 -5.65111328 9.91140625 -6.76171875 10.96875 C-9.42591981 13.38652408 -12.13800215 15.7420489 -14.8671875 18.0859375 C-18.15897682 21.04010741 -21.22783485 24.20696552 -24.3125 27.375 C-26.43132579 29.44455078 -28.57137354 31.38215475 -30.8125 33.3125 C-35.08214126 37.0133898 -39.04515888 40.96791589 -43 45 C-47.57997885 49.66943156 -52.23097153 54.14095888 -57.1875 58.41015625 C-59.57115643 60.50099282 -61.78864325 62.72887685 -64 65 C-66.87557659 67.91053801 -69.75874094 70.72424022 -72.875 73.375 C-76.99827627 76.89731293 -80.76346809 80.7356635 -84.57104492 84.59057617 C-87.94552638 87.99069877 -91.4247937 91.18755737 -95.07421875 94.29296875 C-97.31136611 96.27599795 -99.40054652 98.37193386 -101.5 100.5 C-109.89740264 108.92611171 -117.03945635 115.95780118 -129.5625 116.5 C-138.29009067 116.13070843 -145.04390689 112.21393264 -151 106 C-154.10441798 102.41445451 -157.05524625 98.71706649 -160 95 C-164.92971144 88.8982519 -169.94101723 82.87851614 -175.0625 76.9375 C-189 60.75629461 -189 60.75629461 -189 59 C-183.36146428 58.64759152 -179.17917707 59.71934484 -174 62 C-173.14148438 62.37511719 -172.28296875 62.75023437 -171.3984375 63.13671875 C-166.85099027 65.16705786 -162.37341411 67.29927852 -157.9375 69.5625 C-153.81281006 71.65758061 -149.62127181 73.37331012 -145.30078125 75.01953125 C-143.17027167 75.92743941 -141.41931332 76.96895949 -139.5 78.25 C-134.72827926 80.63586037 -131.23102862 81.05647703 -126 80 C-117.62810868 76.69043568 -110.57303677 71.36218557 -103.4465332 65.98144531 C-99.09733005 62.71940263 -94.67890758 60.06706623 -89.84765625 57.5625 C-73.27167812 48.4673131 -58.06937165 36.19644279 -43.13574219 24.68237305 C-36.54384385 19.6131692 -29.79692775 14.78989449 -23 10 C-22.40219727 9.54109375 -21.80439453 9.0821875 -21.18847656 8.609375 C-20.58229492 8.15046875 -19.97611328 7.6915625 -19.3515625 7.21875 C-18.80580566 6.79529297 -18.26004883 6.37183594 -17.69775391 5.93554688 C-16 5 -16 5 -12 5 C-12 4.34 -12 3.68 -12 3 C-10.5682384 2.30062798 -9.12932968 1.61587282 -7.6875 0.9375 C-6.48673828 0.36322266 -6.48673828 0.36322266 -5.26171875 -0.22265625 C-3 -1 -3 -1 0 0 Z " fill="#86BB33" transform="translate(279,89)"/>
<path d="M0 0 C0.33 0 0.66 0 1 0 C1 66.33 1 132.66 1 201 C-9.23 201 -19.46 201 -30 201 C-28.3857703 199.92384686 -26.76829946 198.8521576 -25.1328125 197.80859375 C-24.47023438 197.35613281 -23.80765625 196.90367187 -23.125 196.4375 C-22.13886719 195.78587891 -22.13886719 195.78587891 -21.1328125 195.12109375 C-15.01811898 189.03999745 -13.47164863 183.05934418 -13.42281461 174.51212966 C-13.43716095 172.24597396 -13.4760478 169.9809415 -13.51513672 167.71508789 C-13.5247058 166.07484604 -13.53189945 164.43458889 -13.53691101 162.79432678 C-13.5517807 159.27635305 -13.58148727 155.75893323 -13.62237167 152.24116707 C-13.68514061 146.67185083 -13.70303249 141.10293868 -13.71292114 135.53330994 C-13.74753531 119.70088778 -13.83700512 103.86914291 -13.98242188 88.03735352 C-14.06244703 79.28225601 -14.10280229 70.52786016 -14.10065472 61.7723884 C-14.10160886 56.24177107 -14.15132541 50.71446877 -14.23777461 45.18456089 C-14.2800338 41.7366641 -14.27595225 38.28994586 -14.25911903 34.84187889 C-14.26050263 33.25111786 -14.28056666 31.66023859 -14.32134438 30.06999969 C-14.61597687 17.98362269 -14.61597687 17.98362269 -10.5367775 12.97637749 C-7.5461731 10.34910583 -7.5461731 10.34910583 -4.55722237 8.19637203 C-1.58682662 5.64512963 -0.89955694 3.75618087 0 0 Z " fill="#F8FBFC" transform="translate(328,43)"/>
<path d="M0 0 C0.33 0 0.66 0 1 0 C1.09358941 16.53365284 1.16405052 33.06721927 1.20724869 49.60107327 C1.22784268 57.27865409 1.25590237 64.95606998 1.30175781 72.63354492 C1.34172292 79.32802621 1.3674558 86.02238801 1.37635398 92.71698529 C1.38155248 96.25925787 1.39370378 99.8011887 1.42292023 103.34335136 C1.45532975 107.30505481 1.45595321 111.26642897 1.45410156 115.22827148 C1.46848267 116.39280853 1.48286377 117.55734558 1.49768066 118.75717163 C1.44695898 128.80605656 -1.18843862 135.66447236 -8 143 C-8.45482758 143.54146164 -8.90965515 144.08292328 -9.37826538 144.64079285 C-11.48615367 146.4074548 -12.65809437 146.37452361 -15.38525391 146.37231445 C-16.2711319 146.37854324 -17.15700989 146.38477203 -18.06973267 146.39118958 C-19.50861343 146.37737495 -19.50861343 146.37737495 -20.9765625 146.36328125 C-22.47453873 146.36402901 -22.47453873 146.36402901 -24.0027771 146.36479187 C-26.12622048 146.36244789 -28.24966645 146.35270039 -30.37304688 146.33618164 C-33.56406734 146.31294373 -36.75423097 146.31557417 -39.9453125 146.32226562 C-49.73921834 146.30799515 -59.33894026 146.05251859 -69.04853821 144.73408508 C-75.78434772 143.83210549 -82.46354134 143.65013497 -89.24807739 143.53585815 C-102.24185764 143.31016164 -115.09696628 142.61483897 -128 141 C-127.505 140.01 -127.505 140.01 -127 139 C-126.42341141 138.96907761 -125.84682281 138.93815521 -125.25276184 138.90629578 C-109.05080231 138.03585539 -92.850581 137.1365676 -76.65179443 136.20892334 C-74.27459224 136.07292088 -71.89735587 135.93751393 -69.52008057 135.80279541 C-63.18882759 135.44349965 -56.85860541 135.07149126 -50.52938843 134.67788696 C-48.60551769 134.5600544 -46.68137768 134.44653285 -44.75698853 134.3374939 C-42.07929385 134.18481177 -39.40304031 134.01630154 -36.7265625 133.84375 C-35.95488235 133.80312943 -35.18320221 133.76250885 -34.38813782 133.72065735 C-28.5147324 133.31517044 -22.51469791 132.272615 -18.01171875 128.203125 C-17.57472656 127.55859375 -17.13773437 126.9140625 -16.6875 126.25 C-16.23761719 125.61578125 -15.78773438 124.9815625 -15.32421875 124.328125 C-11.45060519 117.51787815 -10.39048524 111.82022848 -9.8125 104.0625 C-9.73064453 103.09248047 -9.64878906 102.12246094 -9.56445312 101.12304688 C-9.3656711 98.74935563 -9.17780724 96.37533877 -9 94 C-8.34 94 -7.68 94 -7 94 C-6.01 97.465 -6.01 97.465 -5 101 C-4.34 101 -3.68 101 -3 101 C-3 101.99 -3 102.98 -3 104 C-2.01 104 -1.02 104 0 104 C0 69.68 0 35.36 0 0 Z " fill="#74D6F9" transform="translate(285,86)"/>
<path d="M0 0 C0.99 0.495 0.99 0.495 2 1 C2.31241371 3.54941373 2.51303421 6.00361513 2.625 8.5625 C2.66367187 9.27341797 2.70234375 9.98433594 2.7421875 10.71679688 C2.83671783 12.47742425 2.91945817 14.23867728 3 16 C3.66 16 4.32 16 5 16 C5.33 12.37 5.66 8.74 6 5 C6.33 5 6.66 5 7 5 C7.99 17.375 7.99 17.375 9 30 C10.485 30.495 10.485 30.495 12 31 C12.94921875 33.50390625 12.94921875 33.50390625 13.6875 36.5625 C13.93886719 37.57441406 14.19023437 38.58632812 14.44921875 39.62890625 C14.63097656 40.41136719 14.81273437 41.19382813 15 42 C14.34 42 13.68 42 13 42 C13 41.01 13 40.02 13 39 C12.34 39 11.68 39 11 39 C10.34 36.69 9.68 34.38 9 32 C8.34 32 7.68 32 7 32 C6.01 31.01 6.01 31.01 5 30 C4.76925781 30.72703125 4.53851563 31.4540625 4.30078125 32.203125 C-3.78741893 57.13907811 -3.78741893 57.13907811 -13.37890625 62.2734375 C-15.56386665 63.26245649 -17.75796315 64.15067443 -20 65 C-20.99 65.495 -20.99 65.495 -22 66 C-24.42627259 66.42344623 -26.84433482 66.80540245 -29.28125 67.15625 C-30.0093689 67.2634436 -30.73748779 67.37063721 -31.4876709 67.4810791 C-33.03418166 67.70795574 -34.58094329 67.93312785 -36.12792969 68.15673828 C-38.46354236 68.49472422 -40.79821135 68.83869824 -43.1328125 69.18359375 C-53.76181275 70.74291847 -64.24012405 72.18295265 -75 72.125 C-76.12341797 72.13080078 -76.12341797 72.13080078 -77.26953125 72.13671875 C-82.7462986 72.1268507 -82.7462986 72.1268507 -85 71 C-85 70.34 -85 69.68 -85 69 C-83.88625 68.82984375 -82.7725 68.6596875 -81.625 68.484375 C-71.2482398 66.85534508 -61.12303908 64.7996724 -51 62 C-50.31631348 61.81711426 -49.63262695 61.63422852 -48.92822266 61.44580078 C-30.76234522 56.53301632 -18.26724081 47.61649806 -8.71875 31.171875 C-3.27015899 21.11674795 -1.61264591 11.21521928 0 0 Z " fill="#D8EAF3" transform="translate(269,148)"/>
<path d="M0 0 C3 1 3 1 5 4 C5.78568028 6.19661398 6.44941533 8.41462699 7.12109375 10.6484375 C9.2818169 16.42957233 12.30968748 19.31697138 17.5 22.5 C18.11568848 22.88728271 18.73137695 23.27456543 19.36572266 23.67358398 C24.68851569 26.95448493 30.20548452 29.64671718 36 32 C35.63543463 34.45439784 35.44791086 35.65820269 33.43359375 37.1953125 C32.77488281 37.50210938 32.11617187 37.80890625 31.4375 38.125 C30.79683594 38.43695313 30.15617187 38.74890625 29.49609375 39.0703125 C23.06708577 41.4648413 17.17969747 42.34309666 10.375 42.3125 C9.28832031 42.33666992 9.28832031 42.33666992 8.1796875 42.36132812 C1.18421411 42.3676646 -3.90090236 39.82347074 -9 35 C-12.34027205 29.27381934 -13.55279075 24.63348901 -13 18 C-10.74644869 10.67595824 -5.18180341 5.403248 0 0 Z " fill="#A2C531" transform="translate(67,147)"/>
<path d="M0 0 C1 1 1 1 1.25 4.1875 C2.16715302 8.84969453 3.50398995 10.80799082 7 14 C9.32031805 14.41434251 11.65639085 14.74889902 14 15 C17.18251523 17.12167682 18.87267139 18.80900708 21 22 C21.49908545 25.74314089 21.14278856 27.70252384 19.5 31.125 C16.38501433 34.70723352 13.52304466 36.5733204 9 38 C7.43953917 38.10136327 5.87604282 38.16207654 4.3125 38.1875 C-2.37066864 38.67281331 -6.87576743 42.63636285 -12.03466797 46.53564453 C-15.77241932 49.32061753 -19.61334383 51.96065028 -23.4375 54.625 C-24.27128174 55.20805908 -25.10506348 55.79111816 -25.96411133 56.3918457 C-28.6411231 58.26355905 -31.32035671 60.13205631 -34 62 C-35.4854834 63.03737305 -35.4854834 63.03737305 -37.00097656 64.09570312 C-40.01614251 66.19663008 -43.03830506 68.28709681 -46.0625 70.375 C-47.00859131 71.03580566 -47.95468262 71.69661133 -48.92944336 72.37744141 C-50.25020874 73.28502197 -50.25020874 73.28502197 -51.59765625 74.2109375 C-52.37633057 74.75024902 -53.15500488 75.28956055 -53.95727539 75.84521484 C-56 77 -56 77 -59 77 C-51.76069078 70.34599663 -44.29662494 64.09550054 -36.51953125 58.08203125 C-33.83203481 55.86120086 -31.44789026 53.48321335 -29 51 C-26.24842767 48.33375895 -23.46912031 45.69733296 -20.6875 43.0625 C-19.96626953 42.37220703 -19.24503906 41.68191406 -18.50195312 40.97070312 C-13.90076295 36.61711063 -9.15973058 32.67555592 -4 29 C-4.41855997 25.65152025 -5.35662539 23.34513362 -7.0625 20.5 C-9.90446264 15.07537788 -9.90648423 8.96972946 -9 3 C-6.47491372 -0.5469687 -4.2018974 -0.36538238 0 0 Z " fill="#FDF6E8" transform="translate(281,9)"/>
<path d="M0 0 C3 1.75 3 1.75 5 5 C5.82410644 9.33120601 5.9241345 13.59980089 6 18 C6.061875 19.2375 6.12375 20.475 6.1875 21.75 C6.53713145 32.06412776 6.53713145 32.06412776 4.1875 35.75 C1.0874874 38.93858439 -0.97314823 40.29988308 -5.375 40.375 C-8.7562405 40.29802867 -9.9331201 40.03984335 -12.9375 38.25 C-18.36192907 32.33244101 -17.16247167 26.19247732 -16.875 18.5625 C-16.85179687 17.33466797 -16.82859375 16.10683594 -16.8046875 14.84179688 C-16.7634375 13.65779297 -16.7221875 12.47378906 -16.6796875 11.25390625 C-16.64601074 10.17439697 -16.61233398 9.0948877 -16.57763672 7.98266602 C-15.87159414 4.3369677 -14.59079799 2.6229397 -12 0 C-7.78419295 -1.40526902 -4.29113452 -1.03890625 0 0 Z " fill="#1F55C6" transform="translate(171,4)"/>
<path d="M0 0 C5.57894737 3.15789474 5.57894737 3.15789474 7 6 C7.45476121 10.57156862 7.60871195 15.16133415 7.8125 19.75 C7.88919922 21.02617187 7.96589844 22.30234375 8.04492188 23.6171875 C8.50136288 34.1538257 8.50136288 34.1538257 6.12890625 37.8046875 C3.114577 40.9130417 1.40580409 41.81663425 -2.875 42.375 C-6.84487514 41.89861498 -8.89536536 40.46959574 -12 38 C-14.32442932 34.51335603 -14.25705205 33.0946402 -14.265625 28.9765625 C-14.26820312 27.790625 -14.27078125 26.6046875 -14.2734375 25.3828125 C-14.26570313 24.14273437 -14.25796875 22.90265625 -14.25 21.625 C-14.25773437 20.39265625 -14.26546875 19.1603125 -14.2734375 17.890625 C-14.27085938 16.70210937 -14.26828125 15.51359375 -14.265625 14.2890625 C-14.26336914 13.20318848 -14.26111328 12.11731445 -14.25878906 10.99853516 C-13.99167639 7.90355612 -13.43080325 5.74973051 -12 3 C-7.97691668 0.34842236 -4.78909521 -0.69840972 0 0 Z " fill="#1951C6" transform="translate(113,3)"/>
<path d="M0 0 C3.56783788 2.75020836 4.66938023 4.29469803 5.51953125 8.6796875 C5.8230426 11.79573736 5.94203949 14.87013254 6 18 C6.07541016 19.47339844 6.07541016 19.47339844 6.15234375 20.9765625 C6.39848586 28.12452929 5.74068426 32.94609469 0.8125 38.4375 C-3.1487551 40.63819728 -5.48787793 40.42972591 -10 40 C-13.4203866 38.82986774 -13.91540482 38.12689277 -16 35 C-16.41013383 30.59157829 -16.37160426 26.17392117 -16.37060547 21.7487793 C-16.37497837 19.57325946 -16.41130423 17.39977023 -16.44921875 15.22460938 C-16.45508743 13.83854859 -16.45905648 12.45247819 -16.4609375 11.06640625 C-16.46915527 9.80771729 -16.47737305 8.54902832 -16.48583984 7.25219727 C-15.91481675 3.42978587 -15.05127155 2.29104182 -12 0 C-7.78536136 -1.40487955 -4.27363235 -1.1696257 0 0 Z " fill="#2167CF" transform="translate(60,4)"/>
<path d="M0 0 C6.7522998 0.93349767 11.43464058 3.79159056 16.46875 8.25 C17.07192047 8.77599792 17.67509094 9.30199585 18.29653931 9.84393311 C25.28335589 16.01369509 31.83466908 22.6147519 38.375 29.25 C39.61149895 30.49657027 40.8484764 31.74266609 42.0859375 32.98828125 C45.06280187 35.98678092 48.03323753 38.9915064 51 42 C49 43 49 43 46.79296875 42.328125 C42.29666011 40.46758349 38.17347476 38.50408485 34 36 C30.7022552 34.57270382 27.35366343 33.28908043 24 32 C23.29230469 31.70738281 22.58460937 31.41476563 21.85546875 31.11328125 C18.3910606 29.71248506 15.74577519 28.952075 12 28.9375 C8.93460672 28.67094406 8.05364212 28.05193618 5.7890625 25.859375 C1.10185467 20.07228086 -2.30597269 15.85085313 -2.125 8.25 C-2.09792969 6.77273437 -2.09792969 6.77273437 -2.0703125 5.265625 C-2.04710938 4.51796875 -2.02390625 3.7703125 -2 3 C-1.34 3 -0.68 3 0 3 C0 2.01 0 1.02 0 0 Z " fill="#DE7F29" transform="translate(81,120)"/>
<path d="M0 0 C0.33 0 0.66 0 1 0 C1.09358941 16.53365284 1.16405052 33.06721927 1.20724869 49.60107327 C1.22784268 57.27865409 1.25590237 64.95606998 1.30175781 72.63354492 C1.34172292 79.32802621 1.3674558 86.02238801 1.37635398 92.71698529 C1.38155248 96.25925787 1.39370378 99.8011887 1.42292023 103.34335136 C1.45532975 107.30505481 1.45595321 111.26642897 1.45410156 115.22827148 C1.46848267 116.39280853 1.48286377 117.55734558 1.49768066 118.75717163 C1.45049739 128.10503422 -0.6539248 134.97398817 -7 142 C-11.69482744 140.6191684 -15.17181578 137.96482788 -18 134 C-18.84765625 131.58203125 -18.84765625 131.58203125 -19 129 C-17.85546875 126.71875 -17.85546875 126.71875 -16.1875 124.5 C-12.71691783 119.81759936 -10.86916662 115.76243989 -10.3671875 109.91796875 C-10.28339844 108.98662109 -10.19960938 108.05527344 -10.11328125 107.09570312 C-10.03464844 106.13599609 -9.95601563 105.17628906 -9.875 104.1875 C-9.78863281 103.20845703 -9.70226562 102.22941406 -9.61328125 101.22070312 C-9.40198821 98.81431022 -9.19779237 96.40753388 -9 94 C-8.34 94 -7.68 94 -7 94 C-6.01 97.465 -6.01 97.465 -5 101 C-4.34 101 -3.68 101 -3 101 C-3 101.99 -3 102.98 -3 104 C-2.01 104 -1.02 104 0 104 C0 69.68 0 35.36 0 0 Z " fill="#96CFEF" transform="translate(285,86)"/>
<path d="M0 0 C0.99 0.495 0.99 0.495 2 1 C0.3401496 3.28445807 -1.02179862 4.80378233 -3.86286688 5.37367296 C-6.28249941 5.50555392 -8.67568621 5.51341018 -11.09881592 5.48101807 C-12.0292 5.48443577 -12.95958409 5.48785347 -13.91816163 5.49137473 C-17.04308291 5.49797573 -20.16714973 5.47594054 -23.29199219 5.45410156 C-25.52900675 5.45297357 -27.7660228 5.45360601 -30.0030365 5.45587158 C-36.08331336 5.45702152 -42.16327603 5.43346667 -48.24347973 5.40557575 C-54.59494125 5.38060882 -60.94640958 5.37822381 -67.2979126 5.37347412 C-77.9608774 5.36244523 -88.6237178 5.33744269 -99.28662109 5.30175781 C-110.26936261 5.26504077 -121.25207278 5.23672753 -132.23486328 5.21972656 C-133.25035893 5.21815022 -133.25035893 5.21815022 -134.28636965 5.21654204 C-137.68267109 5.21132188 -141.07897275 5.20626705 -144.47527456 5.20129442 C-172.65026341 5.15982868 -200.82512453 5.08907967 -229 5 C-228.67 4.34 -228.34 3.68 -228 3 C-115.14 2.505 -115.14 2.505 0 2 C0 1.34 0 0.68 0 0 Z " fill="#206DCA" transform="translate(244,56)"/>
<path d="M0 0 C4.91836726 0.02678849 8.52086847 0.50178905 12.9609375 2.5234375 C16.13967602 3.6919066 19.37775962 3.76731329 22.73828125 3.94140625 C24.9375 4.25 24.9375 4.25 27.9375 6.25 C26.0625 10.125 26.0625 10.125 24.9375 11.25 C21.22527711 11.20828963 17.52269901 11.12271591 13.81445312 10.94726562 C8.30823011 10.82570551 5.29655799 11.56455572 0.9375 15.25 C-0.95327748 17.10025578 -0.95327748 17.10025578 -2.4375 19 C-2.94023438 19.61359375 -3.44296875 20.2271875 -3.9609375 20.859375 C-4.32445312 21.31828125 -4.68796875 21.7771875 -5.0625 22.25 C-8.8984375 21.4921875 -8.8984375 21.4921875 -10.375 19.3125 C-11.62580125 13.74074897 -11.07416961 8.31549212 -8.5625 3.1875 C-5.85059448 -0.31537797 -4.49696012 0.06195582 0 0 Z " fill="#D9EBF4" transform="translate(36.0625,69.75)"/>
<path d="M0 0 C0.02505615 0.78238037 0.0501123 1.56476074 0.07592773 2.37084961 C0.19149788 5.89324949 0.31439949 9.4153556 0.4375 12.9375 C0.47681641 14.16919922 0.51613281 15.40089844 0.55664062 16.66992188 C0.59853516 17.83974609 0.64042969 19.00957031 0.68359375 20.21484375 C0.72025146 21.29886475 0.75690918 22.38288574 0.79467773 23.49975586 C0.72364265 25.939263 0.72364265 25.939263 2 27 C4.45809998 27.2500773 4.45809998 27.2500773 7 27 C9.60088622 24.39911378 9.29962225 23.17862887 9.4140625 19.5546875 C9.45273438 18.47832031 9.49140625 17.40195312 9.53125 16.29296875 C9.57765625 14.60107422 9.57765625 14.60107422 9.625 12.875 C9.68300781 11.17150391 9.68300781 11.17150391 9.7421875 9.43359375 C9.83667601 6.62256044 9.92223541 3.81153767 10 1 C10.66 1.33 11.32 1.66 12 2 C12.33 1.34 12.66 0.68 13 0 C13.99 0 14.98 0 16 0 C16.08725659 4.2290362 16.1404789 8.45784012 16.1875 12.6875 C16.21263672 13.88568359 16.23777344 15.08386719 16.26367188 16.31835938 C16.27333984 17.47529297 16.28300781 18.63222656 16.29296875 19.82421875 C16.3086792 20.88729248 16.32438965 21.95036621 16.34057617 23.0456543 C15.81765065 27.5817989 13.86114264 30.13885736 10.6875 33.3125 C7.36445973 35.39906017 5.85796288 35.70860543 2 35 C-1.30261141 33.03113551 -3.34663774 31.72278276 -4.71923828 28.10351562 C-6.06195218 22.0826488 -6.07492775 16.5700153 -5.625 10.4375 C-5.56828125 9.52419922 -5.5115625 8.61089844 -5.453125 7.66992188 C-5.3133783 5.44562018 -5.16217968 3.22275903 -5 1 C-1.125 0 -1.125 0 0 0 Z " fill="#1D4DC3" transform="translate(216,10)"/>
<path d="M0 0 C0.33 0 0.66 0 1 0 C1.2475 0.969375 1.495 1.93875 1.75 2.9375 C2.84925947 6.84066769 4.46844165 10.42030875 6.1953125 14.08203125 C7 16 7 16 7 18 C7.66 18 8.32 18 9 18 C9 18.66 9 19.32 9 20 C9.58007812 19.84402344 10.16015625 19.68804687 10.7578125 19.52734375 C15.41158375 18.36774068 19.31602442 17.4005937 24 19 C25.375 21.0625 25.375 21.0625 26 23 C23.16140858 26.46074844 21.58747908 27.87057567 17.15234375 28.84765625 C15.74885268 28.94367766 14.34346364 29.01481837 12.9375 29.0625 C12.23044922 29.12115234 11.52339844 29.17980469 10.79492188 29.24023438 C7.40001814 29.41555804 5.42831686 29.3055374 2.62890625 27.30859375 C-1.30951328 21.72680491 -1.28193185 16.88011013 -1.1875 10.25 C-1.18685547 9.37472656 -1.18621094 8.49945313 -1.18554688 7.59765625 C-1.14049693 1.14049693 -1.14049693 1.14049693 0 0 Z " fill="#E5F1F7" transform="translate(36,90)"/>
<path d="M0 0 C1.83227539 0.89306641 1.83227539 0.89306641 3.08227539 3.95556641 C3.32977539 4.92494141 3.57727539 5.89431641 3.83227539 6.89306641 C-5.7617704 14.04916334 -15.50750141 20.93785339 -25.41381836 27.65478516 C-28.57168038 29.79685853 -31.70796604 31.96563285 -34.82788086 34.16259766 C-35.56014893 34.67564453 -36.29241699 35.18869141 -37.046875 35.71728516 C-38.4288341 36.68705869 -39.8071328 37.6620761 -41.18115234 38.64306641 C-45.83228785 41.89306641 -45.83228785 41.89306641 -49.16772461 41.89306641 C-41.92841539 35.23906304 -34.46434955 28.98856695 -26.68725586 22.97509766 C-23.99791524 20.75274332 -21.61238306 18.38332107 -19.16772461 15.89306641 C-16.33734734 13.07634856 -13.47640046 10.29312564 -10.60522461 7.51806641 C-9.85047852 6.76912109 -9.09573242 6.02017578 -8.31811523 5.24853516 C-7.22080078 4.19472656 -7.22080078 4.19472656 -6.10131836 3.11962891 C-5.44188232 2.47590332 -4.78244629 1.83217773 -4.10302734 1.16894531 C-2.16772461 -0.10693359 -2.16772461 -0.10693359 0 0 Z " fill="#FEE4BA" transform="translate(271.167724609375,44.10693359375)"/>
<path d="M0 0 C4.62 0 9.24 0 14 0 C14.495 2.475 14.495 2.475 15 5 C13.12109375 7.45703125 13.12109375 7.45703125 10.4375 9.8125 C9.13619141 10.99779297 9.13619141 10.99779297 7.80859375 12.20703125 C4.51012974 14.31272663 2.83406948 14.22189097 -1 14 C-3.09454211 14.59260049 -3.09454211 14.59260049 -4.875 15.5 C-6.421875 16.2425 -6.421875 16.2425 -8 17 C-10 15 -10 15 -10.6875 12.5 C-11.85619103 9.59129963 -11.85619103 9.59129963 -15.625 8.6875 C-16.73875 8.460625 -17.8525 8.23375 -19 8 C-19 7.34 -19 6.68 -19 6 C-18.02417969 5.93941406 -17.04835937 5.87882812 -16.04296875 5.81640625 C-14.77066406 5.73261719 -13.49835938 5.64882812 -12.1875 5.5625 C-10.92292969 5.48128906 -9.65835938 5.40007812 -8.35546875 5.31640625 C-5.00818107 5.12815453 -5.00818107 5.12815453 -2 4 C-1.34 2.68 -0.68 1.36 0 0 Z " fill="#E2F0F7" transform="translate(221,62)"/>
<path d="M0 0 C2.64699616 2.64699616 2.25749767 3.90394409 2.265625 7.59375 C2.26820312 8.70621094 2.27078125 9.81867187 2.2734375 10.96484375 C2.26570313 12.13144531 2.25796875 13.29804688 2.25 14.5 C2.25773437 15.66660156 2.26546875 16.83320313 2.2734375 18.03515625 C2.27085938 19.14761719 2.26828125 20.26007812 2.265625 21.40625 C2.26336914 22.43041016 2.26111328 23.45457031 2.25878906 24.50976562 C2 27 2 27 0 29 C-3.5625 28.75 -3.5625 28.75 -7 28 C-9.06307811 23.87384379 -8.22910205 18.53485586 -8.25 14 C-8.270625 12.88109375 -8.29125 11.7621875 -8.3125 10.609375 C-8.31765625 9.54203125 -8.3228125 8.4746875 -8.328125 7.375 C-8.34214355 5.90160156 -8.34214355 5.90160156 -8.35644531 4.3984375 C-8.23881836 3.60695313 -8.12119141 2.81546875 -8 2 C-4.77626323 -0.14915785 -3.73296326 -0.38286803 0 0 Z " fill="#E9F3F9" transform="translate(56,9)"/>
<path d="M0 0 C1.30841635 0.56698042 2.59956434 1.17478217 3.875 1.8125 C3.96194042 5.91653363 4.01537149 10.02033129 4.0625 14.125 C4.10020508 15.87586914 4.10020508 15.87586914 4.13867188 17.66210938 C4.15317383 19.33950195 4.15317383 19.33950195 4.16796875 21.05078125 C4.19153442 22.5982605 4.19153442 22.5982605 4.21557617 24.17700195 C3.875 26.8125 3.875 26.8125 2.5168457 28.68041992 C0.875 29.8125 0.875 29.8125 -1.6875 29.6875 C-4.125 28.8125 -4.125 28.8125 -6.125 25.8125 C-6.58426914 22.18195819 -6.49531516 18.53151658 -6.5 14.875 C-6.52449219 13.87275391 -6.54898438 12.87050781 -6.57421875 11.83789062 C-6.60360277 4.4967833 -6.60360277 4.4967833 -4.234375 1.109375 C-2.125 -0.1875 -2.125 -0.1875 0 0 Z " fill="#F8FAFC" transform="translate(110.125,8.1875)"/>
<path d="M0 0 C2.64699616 2.64699616 2.25749767 3.90394409 2.265625 7.59375 C2.26820313 8.70621094 2.27078125 9.81867187 2.2734375 10.96484375 C2.26570312 12.13144531 2.25796875 13.29804688 2.25 14.5 C2.25773438 15.66660156 2.26546875 16.83320313 2.2734375 18.03515625 C2.27085937 19.14761719 2.26828125 20.26007812 2.265625 21.40625 C2.26336914 22.43041016 2.26111328 23.45457031 2.25878906 24.50976562 C2 27 2 27 0 29 C-2.4375 29.375 -2.4375 29.375 -5 29 C-7.83191857 26.04758326 -8.38295508 23.93625241 -8.3984375 19.90234375 C-8.40230469 18.93619141 -8.40617188 17.97003906 -8.41015625 16.97460938 C-8.39855469 15.97236328 -8.38695312 14.97011719 -8.375 13.9375 C-8.38660156 12.93138672 -8.39820313 11.92527344 -8.41015625 10.88867188 C-8.40628906 9.92380859 -8.40242187 8.95894531 -8.3984375 7.96484375 C-8.39505371 7.0843335 -8.39166992 6.20382324 -8.38818359 5.29663086 C-7.55888984 0.39023691 -4.61569817 -0.59175618 0 0 Z " fill="#EBF2F8" transform="translate(167,9)"/>
<path d="M0 0 C2.9375 0.1875 2.9375 0.1875 3.9375 1.1875 C4.19092236 5.49397636 4.12272638 9.81195054 4.125 14.125 C4.13724609 15.34380859 4.14949219 16.56261719 4.16210938 17.81835938 C4.16500977 19.56149414 4.16500977 19.56149414 4.16796875 21.33984375 C4.17207764 22.41226318 4.17618652 23.48468262 4.18041992 24.58959961 C3.9375 27.1875 3.9375 27.1875 1.9375 29.1875 C-0.5625 29.4375 -0.5625 29.4375 -3.0625 29.1875 C-5.70949616 26.54050384 -5.31999767 25.28355591 -5.328125 21.59375 C-5.33070313 20.48128906 -5.33328125 19.36882813 -5.3359375 18.22265625 C-5.32433594 16.47275391 -5.32433594 16.47275391 -5.3125 14.6875 C-5.32023438 13.52089844 -5.32796875 12.35429687 -5.3359375 11.15234375 C-5.33335937 10.03988281 -5.33078125 8.92742188 -5.328125 7.78125 C-5.32586914 6.75708984 -5.32361328 5.73292969 -5.32128906 4.67773438 C-4.91856513 0.80246638 -3.80966849 0.23324501 0 0 Z " fill="#F7FAFA" transform="translate(221.0625,8.8125)"/>
<path d="M0 0 C3.4404296 1.88249922 5.13608239 3.59140194 7.3125 6.8125 C4.73550923 8.10099538 3.81068338 7.59008853 1.0625 6.875 C-2.6098255 6.00570556 -5.89189874 5.44219744 -9.6875 5.8125 C-11.99279658 7.68524099 -11.99279658 7.68524099 -11.91796875 10.7109375 C-11.90378906 11.85820312 -11.88960938 13.00546875 -11.875 14.1875 C-11.86855469 15.32960938 -11.86210937 16.47171875 -11.85546875 17.6484375 C-11.7185161 20.22824329 -11.44261844 22.35987531 -10.6875 24.8125 C-11.6775 25.4725 -12.6675 26.1325 -13.6875 26.8125 C-14.0175 23.8425 -14.3475 20.8725 -14.6875 17.8125 C-16.0075 17.4825 -17.3275 17.1525 -18.6875 16.8125 C-19.31210568 6.90555994 -19.31210568 6.90555994 -16.9375 2.75 C-11.5199656 -1.91509907 -6.87900486 -2.21527275 0 0 Z " fill="#D8BC1F" transform="translate(284.6875,4.1875)"/>
<path d="M0 0 C5.39352589 -0.02290785 10.78688421 -0.04283526 16.18041992 -0.05493164 C18.01668875 -0.05997231 19.85295354 -0.06680477 21.68920898 -0.07543945 C24.32276401 -0.08751672 26.95626616 -0.09323081 29.58984375 -0.09765625 C30.41588608 -0.10281754 31.24192841 -0.10797882 32.09300232 -0.11329651 C34.06236368 -0.11349205 36.03161614 -0.06204152 38 0 C39.72847467 1.72847467 39.29389493 3.9573335 39.375 6.3125 C39.36123592 11.61167139 39.36123592 11.61167139 36.5 14.6875 C35.675 15.120625 34.85 15.55375 34 16 C33.34 15.67 32.68 15.34 32 15 C32.33 10.38 32.66 5.76 33 1 C17.655 1.495 17.655 1.495 2 2 C1.67 6.95 1.34 11.9 1 17 C0.34 17.33 -0.32 17.66 -1 18 C-0.505 9.09 -0.505 9.09 0 0 Z M-2 18 C-2 18.99 -2 19.98 -2 21 C-4 22.6875 -4 22.6875 -6 24 C-6.66 23.67 -7.32 23.34 -8 23 C-6.02 21.35 -4.04 19.7 -2 18 Z " fill="#3378DF" transform="translate(232,21)"/>
<path d="M0 0 C2.5625 1.9375 2.5625 1.9375 4 4 C4 4.66 4 5.32 4 6 C2.66666667 7.33333333 1.33333333 8.66666667 0 10 C-0.37004294 12.22658154 -0.37004294 12.22658154 -0.4140625 14.7890625 C-0.47207031 16.20058594 -0.47207031 16.20058594 -0.53125 17.640625 C-0.57765625 19.11789063 -0.57765625 19.11789063 -0.625 20.625 C-0.68300781 22.11386719 -0.68300781 22.11386719 -0.7421875 23.6328125 C-0.8366314 26.08835385 -0.92219875 28.5438841 -1 31 C-1.33 31 -1.66 31 -2 31 C-2.33 22.75 -2.66 14.5 -3 6 C-8.01632918 6 -10.52247755 6.29427716 -15 8 C-15.75 6.25 -15.75 6.25 -16 4 C-11.50210994 -1.62236258 -6.5837868 -1.5687001 0 0 Z " fill="#2E7BE4" transform="translate(227,4)"/>
<path d="M0 0 C0.66 0.33 1.32 0.66 2 1 C1.01 2.485 1.01 2.485 0 4 C-0.31151998 6.4267671 -0.31151998 6.4267671 -0.2784729 9.18217468 C-0.28963638 10.25489624 -0.30079987 11.3276178 -0.31230164 12.43284607 C-0.31446182 13.60960403 -0.31662201 14.786362 -0.31884766 15.9987793 C-0.32889328 17.23792084 -0.3389389 18.47706238 -0.34928894 19.75375366 C-0.37490701 23.15226454 -0.39174619 26.55060797 -0.40471697 29.94917655 C-0.4203357 33.50065615 -0.4471299 37.05205083 -0.4727478 40.60346985 C-0.51955793 47.32883022 -0.55629118 54.05420653 -0.58942068 60.77964669 C-0.62762632 68.43621308 -0.67704053 76.09269422 -0.72740483 83.74918878 C-0.8307579 99.49939759 -0.92000727 115.24965418 -1 131 C-1.33 131 -1.66 131 -2 131 C-2.04667433 114.21503997 -2.08196638 97.43010013 -2.10362434 80.6450901 C-2.11394679 72.85191303 -2.12802555 65.05877623 -2.15087891 57.265625 C-2.17078323 50.47489247 -2.18370939 43.6841891 -2.18817699 36.89342821 C-2.19078941 33.29616016 -2.19694965 29.69897553 -2.21146011 26.10173416 C-2.22750907 22.09073399 -2.2279816 18.07987981 -2.22705078 14.06884766 C-2.23424133 12.86979294 -2.24143188 11.67073822 -2.24884033 10.43534851 C-2.246091 9.34717331 -2.24334167 8.25899811 -2.24050903 7.1378479 C-2.24235262 6.18840113 -2.24419621 5.23895435 -2.24609566 4.26073647 C-2 2 -2 2 0 0 Z " fill="#0A4BC4" transform="translate(288,83)"/>
<path d="M0 0 C0.99 0.33 1.98 0.66 3 1 C-0.63 4.63 -4.26 8.26 -8 12 C-8.66 11.01 -9.32 10.02 -10 9 C-10.9075 9.309375 -11.815 9.61875 -12.75 9.9375 C-15.16563338 10.7272263 -17.52780285 11.42949297 -20 12 C-19.67 11.01 -19.34 10.02 -19 9 C-18.01 8.67 -17.02 8.34 -16 8 C-15.34 7.01 -14.68 6.02 -14 5 C-9.69711385 2.39825489 -5.95706527 1.58318415 -1 1 C-0.67 0.67 -0.34 0.34 0 0 Z " fill="#D08523" transform="translate(288,80)"/>
<path d="M0 0 C0.33 0 0.66 0 1 0 C1.08694042 4.10403363 1.14037149 8.20783129 1.1875 12.3125 C1.22520508 14.06336914 1.22520508 14.06336914 1.26367188 15.84960938 C1.27817383 17.52700195 1.27817383 17.52700195 1.29296875 19.23828125 C1.31653442 20.7857605 1.31653442 20.7857605 1.34057617 22.36450195 C1 25 1 25 -0.3581543 26.86401367 C-2 28 -2 28 -4.5625 27.9375 C-7 27 -7 27 -8.3125 24.9375 C-8.6528125 23.9784375 -8.6528125 23.9784375 -9 23 C-5.535 22.505 -5.535 22.505 -2 22 C-2 17.05 -2 12.1 -2 7 C-1.67 7 -1.34 7 -1 7 C-0.67 4.69 -0.34 2.38 0 0 Z " fill="#D6E6F3" transform="translate(113,10)"/>
<path d="M0 0 C0 0.33 0 0.66 0 1 C-4.62 1 -9.24 1 -14 1 C-14 1.66 -14 2.32 -14 3 C-12.98292969 2.98259766 -12.98292969 2.98259766 -11.9453125 2.96484375 C-5.55795793 2.90291649 0.65969676 3.22981132 7 4 C7 4.33 7 4.66 7 5 C-6.1522251 5.26780549 -18.93716249 4.54166259 -32 3 C-31.67 2.34 -31.34 1.68 -31 1 C-28.59259117 0.67533672 -26.29484153 0.48236785 -23.875 0.375 C-23.16666016 0.33705322 -22.45832031 0.29910645 -21.72851562 0.26000977 C-14.48566455 -0.09363254 -7.2495773 -0.09374453 0 0 Z " fill="#AAE5FB" transform="translate(189,224)"/>
<path d="M0 0 C2.375 1.5 2.375 1.5 4 3 C3.01 4.32 2.02 5.64 1 7 C0.0925 6.773125 -0.815 6.54625 -1.75 6.3125 C-4.99503501 5.67394455 -4.99503501 5.67394455 -7.375 7.4375 C-7.91125 7.953125 -8.4475 8.46875 -9 9 C-10.32 8.01 -11.64 7.02 -13 6 C-12 3 -12 3 -9.3125 1.3125 C-5.82013334 -0.07126792 -3.70933518 -0.48382633 0 0 Z " fill="#2D81E7" transform="translate(113,3)"/>
<path d="M0 0 C0.495 1.98 0.495 1.98 1 4 C-1.31 4.33 -3.62 4.66 -6 5 C-6 4.34 -6 3.68 -6 3 C-14.21227384 2.29742904 -20.1359184 3.29984921 -27 8 C-29.52042537 10.18617541 -31.81043554 12.48417593 -34 15 C-34 12 -34 12 -31.8125 9.5625 C-30.884375 8.716875 -29.95625 7.87125 -29 7 C-28.278125 6.29875 -27.55625 5.5975 -26.8125 4.875 C-18.5657169 -0.6228554 -9.60717166 -0.37376604 0 0 Z " fill="#587882" transform="translate(41,17)"/>
<path d="M0 0 C0.33 0.99 0.66 1.98 1 3 C-0.0390625 4.6484375 -0.0390625 4.6484375 -1.625 6.375 C-2.13289063 6.93960938 -2.64078125 7.50421875 -3.1640625 8.0859375 C-5.4084073 10.42578634 -7.70397439 12.71086936 -10 15 C-10.825 15.84820312 -11.65 16.69640625 -12.5 17.5703125 C-13.325 18.41335937 -14.15 19.25640625 -15 20.125 C-15.825 20.97320312 -16.65 21.82140625 -17.5 22.6953125 C-19.89802673 24.9059934 -22.07317014 26.56624889 -25 28 C-25.66 27.67 -26.32 27.34 -27 27 C-26.03320312 26.10539062 -25.06640625 25.21078125 -24.0703125 24.2890625 C-11.05581981 13.002916 -11.05581981 13.002916 0 0 Z " fill="#EB7E1A" transform="translate(272,30)"/>
<path d="M0 0 C0 0.66 0 1.32 0 2 C-1.65 2 -3.3 2 -5 2 C-5 2.66 -5 3.32 -5 4 C-3.35 4.33 -1.7 4.66 0 5 C-0.33 5.66 -0.66 6.32 -1 7 C-2.1446875 6.938125 -2.1446875 6.938125 -3.3125 6.875 C-6.22718416 6.77919176 -6.22718416 6.77919176 -9 9 C-10.20450304 11.55183404 -10.20450304 11.55183404 -11 14 C-11.33 14 -11.66 14 -12 14 C-13.46750903 6.78474729 -13.46750903 6.78474729 -11.25 3.0625 C-7.65092016 -0.23665652 -4.69710842 -0.10438019 0 0 Z " fill="#1F68D8" transform="translate(168,3)"/>
<path d="M0 0 C0 0.33 0 0.66 0 1 C-2.31 1.33 -4.62 1.66 -7 2 C-4.36 2.33 -1.72 2.66 1 3 C1 3.33 1 3.66 1 4 C-11.35061658 4.76677886 -23.62594802 5.13305432 -36 5 C-36 4.67 -36 4.34 -36 4 C-34.94039062 3.95101562 -33.88078125 3.90203125 -32.7890625 3.8515625 C-31.40101503 3.77653291 -30.01299549 3.70098515 -28.625 3.625 C-27.57699219 3.57859375 -27.57699219 3.57859375 -26.5078125 3.53125 C-22.29814173 3.40500502 -22.29814173 3.40500502 -19 1 C-12.76108108 -0.11334243 -6.32109357 -0.11926592 0 0 Z " fill="#E7F6FC" transform="translate(211,219)"/>
<path d="M0 0 C4.43529612 2.21764806 5.26926061 3.2468343 7.23828125 7.51953125 C9.06692502 13.47434557 9.00360818 20.24759011 6.6875 26.0625 C5.28605654 28.50204973 4.1699461 30.24337697 2 32 C1.34 31.67 0.68 31.34 0 31 C0.61875 30.46375 1.2375 29.9275 1.875 29.375 C5.63367305 25.17413012 6.38814174 20.74266157 6.26953125 15.16796875 C5.78392415 11.26199859 4.4206494 7.65309845 3 4 C1.18884044 5.81115956 1.61800552 8.61278227 1.4375 11.0625 C1.35371094 12.16722656 1.26992188 13.27195312 1.18359375 14.41015625 C1.12300781 15.26480469 1.06242187 16.11945312 1 17 C0.67 17 0.34 17 0 17 C0 11.39 0 5.78 0 0 Z " fill="#F4692B" transform="translate(321,21)"/>
<path d="M0 0 C4.07296876 -0.49873087 7.56775103 -0.88737164 11.15625 1.3359375 C12.86161784 2.82463976 14.46275038 4.33917726 16 6 C15.34 6.66 14.68 7.32 14 8 C12.01171875 7.828125 12.01171875 7.828125 9.6875 7.25 C8.88828125 7.05148438 8.0890625 6.85296875 7.265625 6.6484375 C4.76071626 5.93151534 2.37501481 5.07258733 0 4 C0 2.68 0 1.36 0 0 Z " fill="#B5BD26" transform="translate(276,4)"/>
<path d="M0 0 C1.60520004 0.06023265 3.20934327 0.14908599 4.8125 0.25 C6.15248047 0.31960938 6.15248047 0.31960938 7.51953125 0.390625 C10 1 10 1 11.82421875 3.046875 C12.40623047 4.01367188 12.40623047 4.01367188 13 5 C10.03 4.01 7.06 3.02 4 2 C4.37328935 7.35048061 5.9957657 9.50912907 10 13 C8.68 13.33 7.36 13.66 6 14 C0.11816193 8.24070022 0.11816193 8.24070022 -0.375 3.0625 C-0.25125 2.051875 -0.1275 1.04125 0 0 Z " fill="#DDB618" transform="translate(282,10)"/>
<path d="M0 0 C1.53668865 0.22467831 3.07968054 0.40796805 4.625 0.5625 C5.44226563 0.64628906 6.25953125 0.73007813 7.1015625 0.81640625 C7.72804687 0.87699219 8.35453125 0.93757812 9 1 C9 1.33 9 1.66 9 2 C-1.56 2 -12.12 2 -23 2 C-23 1.34 -23 0.68 -23 0 C-4.03761755 -2.01880878 -4.03761755 -2.01880878 0 0 Z " fill="#DAEDF7" transform="translate(132,224)"/>
<path d="M0 0 C0.495 0.99 0.495 0.99 1 2 C-1.77291781 1.51066156 -4.28292695 0.89766472 -6.9375 -0.0625 C-12.51943365 -1.7712552 -16.62878717 -1.08271518 -22 1 C-23.7325 1.61875 -23.7325 1.61875 -25.5 2.25 C-29.64777506 4.32388753 -31.89516498 6.59225424 -35 10 C-35.66 9.67 -36.32 9.34 -37 9 C-26.80493505 -2.03174202 -14.35852602 -6.84936252 0 0 Z " fill="#FDB02A" transform="translate(119,104)"/>
<path d="M0 0 C2.475 0.495 2.475 0.495 5 1 C5.10815225 2.76949095 5.18566083 4.54087487 5.25 6.3125 C5.29640625 7.29863281 5.3428125 8.28476562 5.390625 9.30078125 C5 12 5 12 2.984375 13.85546875 C2.32953125 14.23316406 1.6746875 14.61085938 1 15 C-0.32286246 10.03926578 -0.08893197 5.08888488 0 0 Z " fill="#5E7B70" transform="translate(266,21)"/>
<path d="M0 0 C1.9375 0.8125 1.9375 0.8125 4 2 C4.33 2.99 4.66 3.98 5 5 C3.66666667 6.33333333 2.33333333 7.66666667 1 9 C0.62995706 11.22658154 0.62995706 11.22658154 0.5859375 13.7890625 C0.54726562 14.73007812 0.50859375 15.67109375 0.46875 16.640625 C0.4378125 17.62546875 0.406875 18.6103125 0.375 19.625 C0.33632812 20.61757813 0.29765625 21.61015625 0.2578125 22.6328125 C0.1633686 25.08835385 0.07780125 27.5438841 0 30 C-0.33 30 -0.66 30 -1 30 C-1.02505615 29.25314941 -1.0501123 28.50629883 -1.07592773 27.73681641 C-1.19168213 24.36602733 -1.31450128 20.99553217 -1.4375 17.625 C-1.47681641 16.449375 -1.51613281 15.27375 -1.55664062 14.0625 C-1.59853516 12.94101562 -1.64042969 11.81953125 -1.68359375 10.6640625 C-1.72025146 9.62717285 -1.75690918 8.5902832 -1.79467773 7.52197266 C-1.84164223 5.00574834 -1.84164223 5.00574834 -3 3 C-2.01 2.01 -1.02 1.02 0 0 Z " fill="#2B6BCF" transform="translate(226,5)"/>
<path d="M0 0 C0.80566406 0.00257812 1.61132812 0.00515625 2.44140625 0.0078125 C3.64603516 0.00394531 3.64603516 0.00394531 4.875 0 C7.00390625 0.1328125 7.00390625 0.1328125 9.00390625 1.1328125 C9.00390625 1.7928125 9.00390625 2.4528125 9.00390625 3.1328125 C7.04242751 4.52219327 5.04224049 5.8588536 3.00390625 7.1328125 C0.38203131 6.08406252 -0.78980736 5.48349937 -2.24609375 3.0078125 C-2.49359375 2.3890625 -2.74109375 1.7703125 -2.99609375 1.1328125 C-1.99609375 0.1328125 -1.99609375 0.1328125 0 0 Z " fill="#E2DE16" transform="translate(179.99609375,75.8671875)"/>
<path d="M0 0 C-1.38221155 3.23912201 -2.88669805 4.8364034 -5.625 7 C-8.19206334 9.42887773 -8.93757436 10.57369157 -9.45703125 14.12109375 C-9.43943092 17.10963005 -9.30743997 20.0280803 -9 23 C-11.4294516 19.3558226 -11.16179575 17.28758728 -11 13 C-11.66 13 -12.32 13 -13 13 C-11.46781315 9.36938333 -9.2816856 7.0136227 -6.5 4.25 C-5.7059375 3.45078125 -4.911875 2.6515625 -4.09375 1.828125 C-2 0 -2 0 0 0 Z " fill="#0F85C0" transform="translate(306,68)"/>
<path d="M0 0 C-1.98 0.99 -1.98 0.99 -4 2 C-4 2.66 -4 3.32 -4 4 C-3.01 4.66 -2.02 5.32 -1 6 C-5 6 -9 6 -13 6 C-13 7.32 -13 8.64 -13 10 C-13.66 10 -14.32 10 -15 10 C-14.70179167 6.42150008 -14.25754642 5.23773516 -11.5625 2.75 C-7.42809174 -0.07349832 -5.01329733 -0.09283884 0 0 Z " fill="#D3CD39" transform="translate(281,3)"/>
<path d="M0 0 C2 2 2 2 2 6 C2.99 6.33 3.98 6.66 5 7 C5.94921875 9.50390625 5.94921875 9.50390625 6.6875 12.5625 C6.93886719 13.57441406 7.19023437 14.58632812 7.44921875 15.62890625 C7.63097656 16.41136719 7.81273437 17.19382813 8 18 C7.34 18 6.68 18 6 18 C6 17.01 6 16.02 6 15 C5.34 15 4.68 15 4 15 C3.34 12.69 2.68 10.38 2 8 C1.34 8 0.68 8 0 8 C0 5.36 0 2.72 0 0 Z " fill="#C2E1F2" transform="translate(276,172)"/>
<path d="M0 0 C0.99 0.33 1.98 0.66 3 1 C3 5.95 3 10.9 3 16 C2.01 15.67 1.02 15.34 0 15 C0 10.05 0 5.1 0 0 Z " fill="#0C6FDA" transform="translate(44,11)"/>
<path d="M0 0 C-0.3125 1.875 -0.3125 1.875 -1 4 C-1.99 4.66 -2.98 5.32 -4 6 C-4.33 5.01 -4.66 4.02 -5 3 C-5.9075 3.309375 -6.815 3.61875 -7.75 3.9375 C-10.16563338 4.7272263 -12.52780285 5.42949297 -15 6 C-14 3 -14 3 -12.109375 1.796875 C-4.30444844 -1.66623811 -4.30444844 -1.66623811 0 0 Z " fill="#B99D21" transform="translate(283,86)"/>
<path d="M0 0 C0.66 0.33 1.32 0.66 2 1 C-0.43505157 3.12781917 -2.87345797 5.2517568 -5.3125 7.375 C-6.34793945 8.27992187 -6.34793945 8.27992187 -7.40429688 9.203125 C-8.40493164 10.07324219 -8.40493164 10.07324219 -9.42578125 10.9609375 C-10.03848877 11.49509277 -10.65119629 12.02924805 -11.2824707 12.57958984 C-13 14 -13 14 -16 16 C-15.8125 13.6875 -15.8125 13.6875 -15 11 C-12.9375 9.625 -12.9375 9.625 -10 8 C-7.87428584 6.22449929 -5.82162342 4.38326865 -3.76953125 2.5234375 C-2 1 -2 1 0 0 Z " fill="#D95D27" transform="translate(316,56)"/>
<path d="M0 0 C11.22 0 22.44 0 34 0 C34 0.33 34 0.66 34 1 C33.07662842 1.0093457 32.15325684 1.01869141 31.2019043 1.02832031 C27.77405494 1.07234734 24.34745949 1.13396107 20.92016602 1.20751953 C19.43721058 1.23573541 17.95410457 1.25694702 16.47094727 1.27099609 C14.33792003 1.2924192 12.20670394 1.33905782 10.07421875 1.390625 C8.79119873 1.41157227 7.50817871 1.43251953 6.1862793 1.45410156 C2.90921429 1.68918585 2.90921429 1.68918585 1.05786133 4.03808594 C0.70876709 4.68551758 0.35967285 5.33294922 0 6 C0 4.02 0 2.04 0 0 Z " fill="#1679D8" transform="translate(15,54)"/>
<path d="M0 0 C0.33 0.99 0.66 1.98 1 3 C-4.4511097 8.03432465 -9.84108352 12.84942585 -16 17 C-16.66 16.67 -17.32 16.34 -18 16 C-17.56131592 15.62190186 -17.12263184 15.24380371 -16.6706543 14.85424805 C-14.67522109 13.13320999 -12.68134757 11.41037472 -10.6875 9.6875 C-9.65206055 8.79514648 -9.65206055 8.79514648 -8.59570312 7.88476562 C-7.59506836 7.01948242 -7.59506836 7.01948242 -6.57421875 6.13671875 C-5.65515747 5.34334106 -5.65515747 5.34334106 -4.7175293 4.53393555 C-3.08403351 3.07505082 -1.53182721 1.56463743 0 0 Z " fill="#FCA626" transform="translate(213,86)"/>
<path d="M0 0 C-0.1328125 1.734375 -0.1328125 1.734375 -1 4 C-3.6171875 6.140625 -3.6171875 6.140625 -6.875 8.25 C-7.94492188 8.95640625 -9.01484375 9.6628125 -10.1171875 10.390625 C-13 12 -13 12 -16 12 C-14.41856529 10.56041153 -12.83477221 9.12341355 -11.25 7.6875 C-10.36828125 6.88699219 -9.4865625 6.08648437 -8.578125 5.26171875 C-2.58031088 0 -2.58031088 0 0 0 Z " fill="#FDE7BB" transform="translate(238,74)"/>
<path d="M0 0 C4.33333333 4.33333333 8.66666667 8.66666667 13 13 C8.41332477 12.72201968 5.75501982 10.66081494 2.44921875 7.69921875 C0.38973825 5.28446398 0.07426071 3.11894986 0 0 Z " fill="#E5EEF5" transform="translate(23,211)"/>
<path d="M0 0 C-0.78503906 0.35191406 -1.57007812 0.70382813 -2.37890625 1.06640625 C-9.07041711 4.21100583 -14.22459337 7.31659352 -19 13 C-19 10 -19 10 -16.8125 7.5625 C-6.23214286 -2.07738095 -6.23214286 -2.07738095 0 0 Z " fill="#4B7485" transform="translate(26,19)"/>
<path d="M0 0 C1.134375 0.020625 2.26875 0.04125 3.4375 0.0625 C3.4375 1.3825 3.4375 2.7025 3.4375 4.0625 C2.4375 5.0625 2.4375 5.0625 -0.125 5.125 C-1.3315625 5.0940625 -1.3315625 5.0940625 -2.5625 5.0625 C-3.2225 3.7425 -3.8825 2.4225 -4.5625 1.0625 C-3.5625 0.0625 -3.5625 0.0625 0 0 Z " fill="#CEE1F1" transform="translate(220.5625,32.9375)"/>
<path d="M0 0 C4.95 0 9.9 0 15 0 C15.33 5.28 15.66 10.56 16 16 C15.01 15.67 14.02 15.34 13 15 C13.33 10.38 13.66 5.76 14 1 C9.38 1 4.76 1 0 1 C0 0.67 0 0.34 0 0 Z " fill="#3680D0" transform="translate(251,21)"/>
<path d="M0 0 C0.99 0.33 1.98 0.66 3 1 C-5.72378764 10.11343572 -5.72378764 10.11343572 -10 12 C-10.66 11.67 -11.32 11.34 -12 11 C-8.04 7.37 -4.08 3.74 0 0 Z " fill="#E78422" transform="translate(257,46)"/>
<path d="M0 0 C-3.02295271 3.25548753 -6.20462309 5.68977058 -10 8 C-10.66 8 -11.32 8 -12 8 C-12 6 -12 6 -10.625 4.375 C-9 3 -9 3 -7 3 C-6.67 2.01 -6.34 1.02 -6 0 C-3 -1 -3 -1 0 0 Z " fill="#FEDEA5" transform="translate(257,63)"/>
<path d="M0 0 C0.66 0.33 1.32 0.66 2 1 C1.175 1.763125 0.35 2.52625 -0.5 3.3125 C-3.34055197 5.75434142 -3.34055197 5.75434142 -3 9 C-4.96466413 10.06775224 -6.96855359 11.06553465 -9 12 C-9.66 11.67 -10.32 11.34 -11 11 C-7.37 7.37 -3.74 3.74 0 0 Z " fill="#DE7D2A" transform="translate(194,138)"/>
<path d="M0 0 C2.64 0 5.28 0 8 0 C7.67 1.65 7.34 3.3 7 5 C4.69 4.67 2.38 4.34 0 4 C0 2.68 0 1.36 0 0 Z " fill="#A3BB13" transform="translate(276,4)"/>
<path d="M0 0 C0.66 0.33 1.32 0.66 2 1 C1.01 2.485 1.01 2.485 0 4 C-0.3650791 6.22131423 -0.3650791 6.22131423 -0.4140625 8.66796875 C-0.45273437 9.56064453 -0.49140625 10.45332031 -0.53125 11.37304688 C-0.5621875 12.30181641 -0.593125 13.23058594 -0.625 14.1875 C-0.66367187 15.12787109 -0.70234375 16.06824219 -0.7421875 17.03710938 C-0.83643187 19.3578771 -0.92204025 21.67863748 -1 24 C-1.33 24 -1.66 24 -2 24 C-2.05787784 20.37506666 -2.0935542 16.75025143 -2.125 13.125 C-2.14175781 12.09246094 -2.15851563 11.05992188 -2.17578125 9.99609375 C-2.18222656 9.00996094 -2.18867188 8.02382812 -2.1953125 7.0078125 C-2.20578613 6.09660645 -2.21625977 5.18540039 -2.22705078 4.24658203 C-2 2 -2 2 0 0 Z " fill="#1454B8" transform="translate(288,83)"/>
<path d="M0 0 C0.99 0.33 1.98 0.66 3 1 C3.09184477 5.77592824 3.1505305 9.69893899 1 14 C0 13 0 13 -0.09765625 10.05859375 C-0.08605469 8.86363281 -0.07445312 7.66867188 -0.0625 6.4375 C-0.05347656 5.23996094 -0.04445312 4.04242188 -0.03515625 2.80859375 C-0.02355469 1.88175781 -0.01195312 0.95492188 0 0 Z " fill="#0F5AC8" transform="translate(44,26)"/>
<path d="M0 0 C0.99 0.33 1.98 0.66 3 1 C1.21326795 2.5058745 -0.57953508 4.0045485 -2.375 5.5 C-3.87160156 6.75296875 -3.87160156 6.75296875 -5.3984375 8.03125 C-8 10 -8 10 -10 10 C-8.58768539 6.64117925 -6.96631022 4.86670953 -4.0625 2.6875 C-3.37285156 2.15511719 -2.68320313 1.62273437 -1.97265625 1.07421875 C-1.32167969 0.71972656 -0.67070312 0.36523438 0 0 Z " fill="#DF7826" transform="translate(236,111)"/>
<path d="M0 0 C1.32 0.33 2.64 0.66 4 1 C4 1.66 4 2.32 4 3 C4.598125 2.649375 5.19625 2.29875 5.8125 1.9375 C8 1 8 1 11 2 C8.03 3.32 5.06 4.64 2 6 C1.34 5.34 0.68 4.68 0 4 C0 2.68 0 1.36 0 0 Z " fill="#EAF6FC" transform="translate(211,73)"/>
<path d="M0 0 C2.1464753 0.11344376 4.29220592 0.24106345 6.4375 0.375 C8.22994141 0.47941406 8.22994141 0.47941406 10.05859375 0.5859375 C11.02925781 0.72257813 11.99992188 0.85921875 13 1 C13.33 1.66 13.66 2.32 14 3 C9.71 3 5.42 3 1 3 C0.67 2.01 0.34 1.02 0 0 Z " fill="#E2F7FC" transform="translate(196,229)"/>
<path d="M0 0 C-0.33 0.66 -0.66 1.32 -1 2 C-3.94140625 2.6328125 -3.94140625 2.6328125 -7.5625 3.125 C-8.76003906 3.29257813 -9.95757812 3.46015625 -11.19140625 3.6328125 C-12.11824219 3.75398437 -13.04507813 3.87515625 -14 4 C-9.26864616 0.35895814 -6.02044068 -1.72012591 0 0 Z " fill="#D8E7F4" transform="translate(182,200)"/>
<path d="M0 0 C2.31 0 4.62 0 7 0 C7 2.31 7 4.62 7 7 C3.17053157 5.54744301 1.87949705 3.57104439 0 0 Z " fill="#A1C93A" transform="translate(90,148)"/>
<path d="M0 0 C4.24822374 0.47202486 6.19989709 2.96655518 9 6 C7.68 6.33 6.36 6.66 5 7 C0 1.125 0 1.125 0 0 Z " fill="#FED768" transform="translate(283,17)"/>
<path d="M0 0 C0.33 0 0.66 0 1 0 C1.08078641 2.12438339 1.13909141 4.2496323 1.1875 6.375 C1.22230469 7.55835938 1.25710938 8.74171875 1.29296875 9.9609375 C1.19628906 10.96382812 1.09960938 11.96671875 1 13 C0.01 13.66 -0.98 14.32 -2 15 C-2.33 13.68 -2.66 12.36 -3 11 C-2.34 11 -1.68 11 -1 11 C-0.67 7.37 -0.34 3.74 0 0 Z " fill="#E1F0FA" transform="translate(275,153)"/>
<path d="M0 0 C0.99 0.33 1.98 0.66 3 1 C1.88121617 2.17262904 0.75476949 3.33795138 -0.375 4.5 C-1.00148438 5.1496875 -1.62796875 5.799375 -2.2734375 6.46875 C-4 8 -4 8 -6 8 C-4.75237172 4.15314615 -3.6129609 1.97070595 0 0 Z " fill="#D7632B" transform="translate(297,72)"/>
<path d="M0 0 C0.66 0 1.32 0 2 0 C0.61811547 3.21043882 -0.92421903 5.04936365 -3.625 7.25 C-4.57246094 8.03117187 -4.57246094 8.03117187 -5.5390625 8.828125 C-6.02117187 9.21484375 -6.50328125 9.6015625 -7 10 C-6.67 8.68 -6.34 7.36 -6 6 C-5.34 6 -4.68 6 -4 6 C-4 5.01 -4 4.02 -4 3 C-2.68 2.67 -1.36 2.34 0 2 C0 1.34 0 0.68 0 0 Z " fill="#286DC9" transform="translate(263,37)"/>
<path d="M0 0 C0 0.66 0 1.32 0 2 C-1.11375 2.12375 -2.2275 2.2475 -3.375 2.375 C-7.03103677 2.6465813 -7.03103677 2.6465813 -9 5 C-9.99 4.67 -10.98 4.34 -12 4 C-8.35616205 0.00912986 -5.26350451 -0.11696677 0 0 Z " fill="#3278DD" transform="translate(168,3)"/>
<path d="M0 0 C-5.1468192 3.16727335 -9.158256 3.35050464 -15 3 C-15 2.67 -15 2.34 -15 2 C-13.06524329 1.46906676 -11.12706845 0.95057683 -9.1875 0.4375 C-8.10855469 0.14746094 -7.02960938 -0.14257812 -5.91796875 -0.44140625 C-3 -1 -3 -1 0 0 Z " fill="#0168AE" transform="translate(296,238)"/>
<path d="M0 0 C1.90608098 3.21182149 2.22266247 5.53882603 2.125 9.25 C2.10695313 10.14203125 2.08890625 11.0340625 2.0703125 11.953125 C2.03550781 12.96632813 2.03550781 12.96632813 2 14 C-0.4294516 10.3558226 -0.16179575 8.28758728 0 4 C-0.66 4 -1.32 4 -2 4 C-1.34 2.68 -0.68 1.36 0 0 Z " fill="#1571BE" transform="translate(295,77)"/>
<path d="M0 0 C4.29 0 8.58 0 13 0 C11.68 0.33 10.36 0.66 9 1 C9 1.66 9 2.32 9 3 C4.545 2.01 4.545 2.01 0 1 C0 0.67 0 0.34 0 0 Z " fill="#EFF8FD" transform="translate(126,222)"/>
<path d="M0 0 C0.99 0.33 1.98 0.66 3 1 C0.3765992 3.91488977 -2.71816394 5.88503898 -6 8 C-5.66354211 4.85972637 -4.94763914 3.94901705 -2.625 1.6875 C-1.75875 1.130625 -0.8925 0.57375 0 0 Z " fill="#F99114" transform="translate(224,77)"/>
<path d="M0 0 C-0.639375 0.268125 -1.27875 0.53625 -1.9375 0.8125 C-4.33131686 1.88667752 -4.33131686 1.88667752 -5 5 C-7.475 4.01 -7.475 4.01 -10 3 C-7.29536552 -0.8183075 -4.37912428 -0.24787496 0 0 Z " fill="#B5C830" transform="translate(281,3)"/>
<path d="M0 0 C-1.49097658 3.7952131 -3.75700849 5.61042731 -7 8 C-6.44414399 4.1090079 -4.34122117 0 0 0 Z " fill="#A1AF33" transform="translate(279,91)"/>
<path d="M0 0 C0 3 0 3 -1.53125 4.60546875 C-2.1809375 5.12753906 -2.830625 5.64960937 -3.5 6.1875 C-4.1496875 6.71730469 -4.799375 7.24710937 -5.46875 7.79296875 C-5.9740625 8.19128906 -6.479375 8.58960937 -7 9 C-6.8125 6.6875 -6.8125 6.6875 -6 4 C-3.5 2.25 -3.5 2.25 -1 1 C-0.67 0.67 -0.34 0.34 0 0 Z " fill="#E65E23" transform="translate(307,63)"/>
<path d="M0 0 C1.32 0.33 2.64 0.66 4 1 C4 4.63 4 8.26 4 12 C3.67 12 3.34 12 3 12 C3 9.03 3 6.06 3 3 C2.01 3 1.02 3 0 3 C0 2.01 0 1.02 0 0 Z " fill="#92955C" transform="translate(267,21)"/>
<path d="M0 0 C0.33 0 0.66 0 1 0 C1.66 3.3 2.32 6.6 3 10 C2.01 10.66 1.02 11.32 0 12 C0 8.04 0 4.08 0 0 Z " fill="#F4B622" transform="translate(271,19)"/>
<path d="M0 0 C0.33 0.66 0.66 1.32 1 2 C0.34 2 -0.32 2 -1 2 C-1.66 4.97 -2.32 7.94 -3 11 C-3.33 11 -3.66 11 -4 11 C-4 7.7 -4 4.4 -4 1 C-2.68 0.67 -1.36 0.34 0 0 Z " fill="#115AD1" transform="translate(215,10)"/>
<path d="M0 0 C1.32 0.33 2.64 0.66 4 1 C4 2.65 4 4.3 4 6 C2.68 6 1.36 6 0 6 C0 4.02 0 2.04 0 0 Z " fill="#F7BC1A" transform="translate(282,11)"/>
<path d="M0 0 C0.66 0.33 1.32 0.66 2 1 C-3.75 6 -3.75 6 -6 6 C-4.98545548 3.4636387 -4.3146444 2.20648539 -2 0.6875 C-1.34 0.460625 -0.68 0.23375 0 0 Z " fill="#E27224" transform="translate(248,103)"/>
<path d="M0 0 C0.33 0 0.66 0 1 0 C1 2.31 1 4.62 1 7 C0.01 6.67 -0.98 6.34 -2 6 C-1.125 1.125 -1.125 1.125 0 0 Z " fill="#DCEBF2" transform="translate(328,233)"/>
<path d="M0 0 C2.875 -0.1875 2.875 -0.1875 6 0 C6.66 0.99 7.32 1.98 8 3 C2.25 3.125 2.25 3.125 0 2 C0 1.34 0 0.68 0 0 Z " fill="#DDEDF6" transform="translate(184,217)"/>
<path d="M0 0 C-1.0625 1.5625 -1.0625 1.5625 -3 3 C-6.6875 2.6875 -6.6875 2.6875 -10 2 C-10 1.67 -10 1.34 -10 1 C-3.375 -1.125 -3.375 -1.125 0 0 Z " fill="#DC6F1F" transform="translate(291,81)"/>
<path d="M0 0 C0.66 0 1.32 0 2 0 C2.125 2.375 2.125 2.375 2 5 C0 7 0 7 -2.625 7.125 C-3.40875 7.08375 -4.1925 7.0425 -5 7 C-3.68 6.67 -2.36 6.34 -1 6 C-0.67 4.02 -0.34 2.04 0 0 Z " fill="#D0E6F3" transform="translate(167,31)"/>
</svg>
